<svg width="390" height="844" viewBox="0 0 390 844" fill="none" xmlns="http://www.w3.org/2000/svg">
<g clip-path="url(#clip0_14_158)">
    <defs>
        <linearGradient id="paint0_linear_14_158" x1="52.1442" y1="257.13" x2="134.508" y2="257.13" gradientUnits="userSpaceOnUse">
            <stop stop-color="#6AB891"/>
            <stop offset="1" stop-color="#85CBA9"/>
        </linearGradient>
        <linearGradient id="paint1_linear_14_158" x1="119.109" y1="316.899" x2="151.923" y2="316.899" gradientUnits="userSpaceOnUse">
            <stop stop-color="#9B756D"/>
            <stop offset="1" stop-color="#BC9388"/>
        </linearGradient>
        <linearGradient id="paint2_linear_14_158" x1="105.608" y1="216.112" x2="165.424" y2="216.112" gradientUnits="userSpaceOnUse">
            <stop stop-color="#8CDD79"/>
            <stop offset="1" stop-color="#D4E6B6"/>
        </linearGradient>
        <clipPath id="clip0_14_158">
            <rect width="390" height="844" fill="white"/>
        </clipPath>
    </defs>
<rect width="390" height="844" fill="white"/>
<rect width="390" height="844" fill="#2AAA8A"/>
<path d="M301.782 108.204C301.782 108.083 301.802 107.963 301.802 107.842C301.802 101.297 296.597 96 290.177 96C285.546 96 281.567 98.759 279.699 102.747C278.885 102.334 277.971 102.092 277.006 102.092C274.042 102.092 271.571 104.297 271.098 107.177C267.542 108.406 265 111.819 265 115.837C265 120.892 269.029 124.99 273.992 125H301.792C306.333 124.98 310 121.224 310 116.602C310.01 111.97 306.323 108.214 301.782 108.204V108.204Z" fill="white"/>
<path d="M345.968 162.412C345.231 158.757 341.943 156 338 156C334.869 156 332.155 157.742 330.796 160.287C327.54 160.632 325 163.337 325 166.625C325 170.147 327.909 173 331.5 173H345.583C348.573 173 351 170.62 351 167.688C351 164.882 348.774 162.609 345.968 162.412Z" fill="white"/>
<path d="M134.694 227.383C133.561 226.502 131.422 225.831 129.786 225.495C129.577 225.495 129.535 226.124 128.947 226.418C128.402 226.712 127.521 226.754 126.892 226.544L125.886 226.712L126.221 226.208C125.886 225.873 125.969 225.453 126.515 225.202C127.102 224.908 128.36 224.866 128.318 224.782C127.647 223.985 126.305 222.895 124.585 222.349C122.698 221.678 119.342 221.301 119.342 221.301C119.342 221.301 122.656 219.665 127.228 220.63C129.661 221.175 131.212 221.972 131.884 222.391C132.555 222.307 133.184 222.307 133.687 222.433L134.945 220.672L138.007 222.224L134.358 222.769C134.652 223.021 134.694 223.356 134.484 223.734C135.323 224.069 137.001 224.824 138.049 226.041C140.021 228.347 136.749 229.983 136.749 229.983C136.749 229.983 135.994 228.306 134.694 227.383V227.383Z" fill="#2D3134"/>
<path d="M189.012 232.081C187.879 231.2 185.74 230.529 184.104 230.193C183.894 230.193 183.853 230.822 183.265 231.116C182.72 231.409 181.839 231.451 181.21 231.242L180.203 231.409L180.539 230.906C180.203 230.571 180.287 230.151 180.833 229.899C181.42 229.606 182.678 229.564 182.636 229.48C181.965 228.683 180.623 227.592 178.903 227.047C176.974 226.418 173.618 226.041 173.618 226.041C173.618 226.041 176.932 224.405 181.504 225.369C183.936 225.915 185.488 226.712 186.159 227.131C186.831 227.047 187.46 227.047 187.963 227.173L189.221 225.411L192.283 226.963L188.676 227.509C188.97 227.76 189.012 228.096 188.802 228.473C189.641 228.809 191.319 229.564 192.367 230.78C194.339 233.087 191.067 234.723 191.067 234.723C191.067 234.723 190.312 233.045 189.012 232.081V232.081Z" fill="#2D3134"/>
<path d="M133.394 201.587C132.261 200.748 130.08 200.035 128.486 199.741C128.276 199.741 128.234 200.371 127.647 200.664C127.102 200.958 126.221 201 125.592 200.79L124.585 200.958L124.921 200.455C124.585 200.119 124.669 199.7 125.214 199.448C125.802 199.154 127.06 199.112 127.018 199.028C126.347 198.231 125.005 197.141 123.285 196.596C121.356 195.925 118 195.547 118 195.547C118 195.547 121.314 193.911 125.886 194.876C128.318 195.421 129.87 196.218 130.541 196.638C131.212 196.554 131.842 196.554 132.345 196.68L133.603 194.918L136.665 196.47L133.058 197.015C133.352 197.267 133.394 197.602 133.184 197.98C134.023 198.315 135.7 199.07 136.749 200.287C138.72 202.594 135.449 204.229 135.449 204.229C135.449 204.229 134.652 202.552 133.394 201.587V201.587Z" fill="#2D3134"/>
<path d="M173.157 210.018C172.024 209.137 169.885 208.466 168.249 208.13C168.04 208.13 167.998 208.76 167.41 209.053C166.865 209.347 165.984 209.389 165.355 209.179L164.348 209.347L164.684 208.843C164.348 208.508 164.432 208.088 164.978 207.837C165.565 207.543 166.823 207.501 166.781 207.417C166.11 206.62 164.768 205.53 163.048 204.985C161.119 204.355 157.763 203.978 157.763 203.978C157.763 203.978 161.077 202.342 165.649 203.307C168.081 203.852 169.633 204.649 170.305 205.068C170.976 204.985 171.605 204.985 172.108 205.11L173.366 203.349L176.428 204.901L172.821 205.446C173.115 205.698 173.157 206.033 172.947 206.411C173.786 206.746 175.464 207.501 176.512 208.718C178.484 211.025 175.212 212.66 175.212 212.66C175.212 212.66 174.415 210.983 173.157 210.018V210.018Z" fill="#2D3134"/>
<path d="M157.553 217.358C156.421 216.477 154.282 215.806 152.646 215.471C152.436 215.471 152.394 216.1 151.807 216.393C151.262 216.687 150.381 216.729 149.752 216.519L148.745 216.687L149.081 216.184C148.745 215.848 148.829 215.429 149.374 215.177C149.962 214.883 151.22 214.841 151.178 214.758C150.507 213.961 149.165 212.87 147.445 212.325C145.515 211.696 142.16 211.318 142.16 211.318C142.16 211.318 145.474 209.682 150.045 210.647C152.478 211.192 154.03 211.989 154.701 212.409C155.372 212.325 156.002 212.325 156.505 212.451L157.763 210.689L160.825 212.241L157.218 212.786C157.512 213.038 157.553 213.373 157.344 213.751C158.183 214.086 159.86 214.841 160.909 216.058C162.88 218.365 159.609 220.001 159.609 220.001C159.609 220.001 158.812 218.323 157.553 217.358V217.358Z" fill="#2D3134"/>
<path d="M163.426 231.493C162.293 230.612 160.154 229.941 158.518 229.606C158.308 229.606 158.267 230.235 157.679 230.529C157.134 230.822 156.253 230.864 155.624 230.654L154.617 230.822L154.953 230.319C154.617 229.983 154.701 229.564 155.247 229.312C155.834 229.019 157.092 228.977 157.05 228.893C156.379 228.096 155.037 227.005 153.317 226.46C151.388 225.831 148.032 225.453 148.032 225.453C148.032 225.453 151.346 223.817 155.918 224.782C158.35 225.327 159.902 226.124 160.573 226.544C161.245 226.46 161.874 226.46 162.377 226.586L163.635 224.824L166.697 226.376L163.09 226.921C163.384 227.173 163.426 227.509 163.216 227.886C164.055 228.222 165.733 228.977 166.781 230.193C168.753 232.5 165.481 234.136 165.481 234.136C165.481 234.136 164.684 232.458 163.426 231.493V231.493Z" fill="#2D3134"/>
<path d="M151.933 188.794C150.8 187.913 148.661 187.242 147.025 186.907C146.816 186.907 146.774 187.536 146.187 187.829C145.641 188.123 144.76 188.165 144.131 187.955L143.125 188.123L143.46 187.62C143.125 187.284 143.209 186.865 143.754 186.613C144.341 186.319 145.599 186.277 145.557 186.193C144.886 185.397 143.544 184.306 141.824 183.761C139.895 183.132 136.539 182.754 136.539 182.754C136.539 182.754 139.853 181.118 144.425 182.083C146.858 182.628 148.41 183.425 149.081 183.845C149.752 183.761 150.381 183.761 150.884 183.887L152.143 182.125L155.205 183.677L151.597 184.222C151.891 184.474 151.933 184.809 151.723 185.187C152.562 185.522 154.24 186.277 155.288 187.494C157.26 189.801 153.988 191.437 153.988 191.437C153.988 191.437 153.233 189.759 151.933 188.794V188.794Z" fill="#2D3134"/>
<path d="M224.203 227.257C223.07 226.376 220.931 225.705 219.295 225.369C219.086 225.369 219.044 225.999 218.457 226.292C217.911 226.586 217.03 226.628 216.401 226.418L215.395 226.586L215.73 226.082C215.395 225.747 215.478 225.327 216.024 225.076C216.611 224.782 217.869 224.74 217.827 224.656C217.156 223.859 215.814 222.769 214.094 222.224C212.165 221.594 208.809 221.217 208.809 221.217C208.809 221.217 212.123 219.581 216.695 220.546C219.128 221.091 220.68 221.888 221.351 222.308C222.022 222.224 222.651 222.224 223.154 222.349L224.413 220.588L227.475 222.14L223.867 222.685C224.161 222.937 224.203 223.272 223.993 223.65C224.832 223.985 226.51 224.74 227.558 225.957C229.53 228.264 226.258 229.899 226.258 229.899C226.258 229.899 225.461 228.222 224.203 227.257V227.257Z" fill="#2D3134"/>
<path d="M147.529 156.581C146.396 155.7 144.257 155.029 142.621 154.693C142.412 154.693 142.37 155.323 141.782 155.616C141.237 155.91 140.356 155.952 139.727 155.742L138.72 155.91L139.056 155.406C138.72 155.071 138.804 154.651 139.35 154.4C139.937 154.106 141.195 154.064 141.153 153.98C140.482 153.183 139.14 152.093 137.42 151.548C135.491 150.918 132.135 150.541 132.135 150.541C132.135 150.541 135.449 148.905 140.021 149.87C142.453 150.415 144.005 151.212 144.677 151.631C145.348 151.548 145.977 151.548 146.48 151.673L147.738 149.912L150.8 151.464L147.193 152.009C147.487 152.261 147.529 152.596 147.319 152.974C148.158 153.309 149.836 154.064 150.884 155.281C152.856 157.588 149.584 159.223 149.584 159.223C149.584 159.223 148.787 157.546 147.529 156.581V156.581Z" fill="#2D3134"/>
<path d="M210.235 153.016C209.103 152.135 206.964 151.464 205.328 151.128C205.118 151.128 205.076 151.757 204.489 152.051C203.944 152.344 203.063 152.386 202.434 152.177L201.427 152.344L201.763 151.841C201.427 151.506 201.511 151.086 202.056 150.834C202.643 150.541 203.902 150.499 203.86 150.415C203.189 149.618 201.847 148.528 200.127 147.982C198.197 147.353 194.842 146.976 194.842 146.976C194.842 146.976 198.155 145.34 202.727 146.305C205.16 146.85 206.712 147.647 207.383 148.066C208.054 147.982 208.683 147.982 209.187 148.108L210.445 146.346L213.507 147.898L209.9 148.444C210.193 148.695 210.235 149.031 210.026 149.408C210.865 149.744 212.542 150.499 213.591 151.715C215.562 154.022 212.291 155.658 212.291 155.658C212.291 155.658 211.494 153.98 210.235 153.016V153.016Z" fill="#2D3134"/>
<path d="M271.013 168.619C269.88 167.738 267.741 167.067 266.105 166.731C265.895 166.731 265.854 167.361 265.266 167.654C264.721 167.948 263.84 167.99 263.211 167.78L262.204 167.948L262.54 167.444C262.204 167.109 262.288 166.689 262.834 166.438C263.421 166.144 264.679 166.102 264.637 166.018C263.966 165.221 262.624 164.131 260.904 163.586C258.975 162.956 255.619 162.579 255.619 162.579C255.619 162.579 258.933 160.943 263.505 161.908C265.937 162.453 267.489 163.25 268.16 163.669C268.832 163.586 269.461 163.586 269.964 163.711L271.222 161.95L274.284 163.502L270.677 164.047C270.971 164.299 271.013 164.634 270.803 165.012C271.642 165.347 273.32 166.102 274.368 167.319C276.34 169.626 273.068 171.261 273.068 171.261C273.068 171.261 272.313 169.584 271.013 168.619V168.619Z" fill="#2D3134"/>
<path d="M266.315 206.914C265.182 206.033 263.043 205.362 261.407 205.027C261.198 205.027 261.156 205.656 260.569 205.949C260.023 206.243 259.142 206.285 258.513 206.075L257.507 206.243L257.842 205.74C257.507 205.404 257.591 204.985 258.136 204.733C258.723 204.439 259.981 204.397 259.939 204.313C259.268 203.517 257.926 202.426 256.206 201.881C254.277 201.252 250.921 200.874 250.921 200.874C250.921 200.874 254.235 199.238 258.807 200.203C261.24 200.748 262.792 201.545 263.463 201.965C264.134 201.881 264.763 201.881 265.266 202.007L266.525 200.245L269.587 201.797L265.979 202.342C266.273 202.594 266.315 202.929 266.105 203.307C266.944 203.642 268.622 204.397 269.67 205.614C271.642 207.921 268.37 209.557 268.37 209.557C268.37 209.557 267.573 207.879 266.315 206.914V206.914Z" fill="#2D3134"/>
<path d="M224.832 187.494C223.7 186.613 221.56 185.942 219.925 185.606C219.715 185.606 219.673 186.235 219.086 186.529C218.54 186.823 217.66 186.865 217.03 186.655L216.024 186.823L216.359 186.319C216.024 185.984 216.108 185.564 216.653 185.313C217.24 185.019 218.498 184.977 218.456 184.893C217.785 184.096 216.443 183.006 214.723 182.46C212.794 181.831 209.438 181.454 209.438 181.454C209.438 181.454 212.752 179.818 217.324 180.783C219.757 181.328 221.309 182.125 221.98 182.544C222.651 182.46 223.28 182.46 223.783 182.586L225.042 180.825L228.104 182.377L224.496 182.922C224.79 183.173 224.832 183.509 224.622 183.887C225.461 184.222 227.139 184.977 228.188 186.193C230.159 188.5 226.887 190.136 226.887 190.136C226.887 190.136 226.09 188.458 224.832 187.494Z" fill="#2D3134"/>
<path d="M185.53 175.54C184.398 174.659 182.259 173.988 180.623 173.652C180.413 173.652 180.371 174.281 179.784 174.575C179.239 174.869 178.358 174.91 177.729 174.701L176.722 174.869L177.058 174.365C176.722 174.03 176.806 173.61 177.351 173.359C177.938 173.065 179.197 173.023 179.155 172.939C178.484 172.142 177.141 171.052 175.422 170.506C173.492 169.877 170.137 169.5 170.137 169.5C170.137 169.5 173.45 167.864 178.022 168.829C180.455 169.374 182.007 170.171 182.678 170.59C183.349 170.506 183.978 170.506 184.482 170.632L185.74 168.871L188.802 170.422L185.195 170.968C185.488 171.219 185.53 171.555 185.321 171.932C186.159 172.268 187.837 173.023 188.886 174.239C190.857 176.546 187.586 178.182 187.586 178.182C187.586 178.182 186.789 176.504 185.53 175.54V175.54Z" fill="#2D3134"/>
<path d="M196.981 209.137C195.849 208.256 193.709 207.585 192.074 207.25C191.864 207.25 191.822 207.879 191.235 208.172C190.689 208.466 189.809 208.508 189.179 208.298L188.173 208.466L188.508 207.963C188.173 207.627 188.257 207.208 188.802 206.956C189.389 206.662 190.647 206.62 190.605 206.537C189.934 205.74 188.592 204.649 186.872 204.104C184.943 203.475 181.587 203.097 181.587 203.097C181.587 203.097 184.901 201.461 189.473 202.426C191.906 202.971 193.458 203.768 194.129 204.188C194.8 204.104 195.429 204.104 195.932 204.23L197.191 202.468L200.253 204.02L196.645 204.565C196.939 204.817 196.981 205.152 196.771 205.53C197.61 205.865 199.288 206.62 200.337 207.837C202.308 210.144 199.036 211.78 199.036 211.78C199.036 211.78 198.281 210.102 196.981 209.137V209.137Z" fill="#2D3134"/>
<path d="M109.733 337.994H76.919C83.2006 326.274 83.2475 317.602 83.9507 305.179H102.702C103.358 316.664 103.217 325.759 109.733 337.994Z" fill="#8A6762"/>
<path d="M140.204 319.243C138.629 319.235 137.102 318.698 135.868 317.719L128.016 311.437C127.804 311.268 127.554 311.155 127.287 311.108C127.021 311.061 126.747 311.081 126.49 311.168C126.233 311.254 126.003 311.403 125.819 311.602C125.635 311.801 125.504 312.042 125.437 312.305C125.014 313.979 124.127 315.5 122.876 316.692C121.626 317.884 120.065 318.699 118.372 319.042C116.679 319.385 114.924 319.242 113.308 318.631C111.693 318.02 110.283 316.964 109.241 315.586L106.241 311.602C106.093 311.398 105.899 311.233 105.675 311.119C105.451 311.004 105.203 310.945 104.952 310.945C104.7 310.945 104.453 311.004 104.229 311.119C104.004 311.233 103.811 311.398 103.663 311.602L100.663 315.586C99.7869 316.724 98.6615 317.646 97.3733 318.28C96.085 318.914 94.6684 319.244 93.2325 319.244C91.7966 319.244 90.3799 318.914 89.0917 318.28C87.8034 317.646 86.6781 316.724 85.8024 315.586L82.8022 311.602C82.6543 311.398 82.4605 311.233 82.2364 311.119C82.0124 311.004 81.7645 310.945 81.5131 310.945C81.2616 310.945 81.0138 311.004 80.7897 311.119C80.5657 311.233 80.3718 311.398 80.2239 311.602L77.2238 315.586C76.1692 316.936 74.7574 317.964 73.1484 318.552C71.5395 319.14 69.7979 319.266 68.1212 318.914C66.4445 318.563 64.8999 317.749 63.6626 316.564C62.4253 315.379 61.5449 313.871 61.1213 312.211C61.055 311.948 60.924 311.707 60.7401 311.508C60.5562 311.309 60.3254 311.16 60.0688 311.074C59.8122 310.988 59.5381 310.967 59.2715 311.014C59.0049 311.061 58.7544 311.175 58.543 311.344L50.691 317.719C49.2978 318.568 47.6527 318.906 46.0375 318.676C44.4224 318.445 42.9377 317.66 41.8378 316.455C40.738 315.25 40.0915 313.7 40.009 312.07C39.9265 310.441 40.4132 308.833 41.3858 307.523C60.6291 287.6 66.9576 279.397 86.2946 255.958H100.358C117.117 276.232 126.586 288.186 142.97 305.179L145.314 307.523C146.211 308.527 146.802 309.767 147.016 311.096C147.23 312.425 147.057 313.788 146.519 315.022C145.981 316.257 145.1 317.311 143.98 318.059C142.861 318.807 141.55 319.218 140.204 319.243V319.243Z" fill="#47916E"/>
<path d="M127.266 286.428C126.181 286.427 125.11 286.182 124.132 285.712C123.154 285.241 122.295 284.557 121.617 283.709L117.562 278.623C117.283 278.276 116.91 278.015 116.488 277.872C116.066 277.729 115.612 277.709 115.179 277.814C114.746 277.92 114.352 278.147 114.043 278.469C113.735 278.791 113.524 279.194 113.437 279.631C113.077 281.27 112.237 282.765 111.025 283.926C109.813 285.087 108.283 285.861 106.629 286.15C104.976 286.439 103.274 286.23 101.74 285.549C100.206 284.868 98.9089 283.746 98.014 282.326L95.4592 278.061C95.2516 277.711 94.9567 277.421 94.6033 277.22C94.2498 277.019 93.8501 276.913 93.4434 276.913C93.0367 276.913 92.637 277.019 92.2836 277.22C91.9302 277.421 91.6352 277.711 91.4277 278.061L88.8729 282.326C87.9924 283.786 86.6915 284.946 85.1405 285.654C83.5895 286.362 81.8608 286.585 80.181 286.294C78.5012 286.002 76.9485 285.21 75.7265 284.021C74.5046 282.833 73.6703 281.302 73.3329 279.631C73.2454 279.194 73.035 278.791 72.7264 278.469C72.4179 278.147 72.024 277.92 71.591 277.814C71.158 277.709 70.7037 277.729 70.2816 277.872C69.8595 278.015 69.4869 278.276 69.2077 278.623L65.1528 283.709C64.517 284.48 63.7282 285.111 62.8361 285.561C61.944 286.012 60.9682 286.272 59.9703 286.326C58.9724 286.379 57.9743 286.225 57.0391 285.873C56.1039 285.521 55.2519 284.978 54.5372 284.28C53.8225 283.582 53.2606 282.742 52.887 281.815C52.5135 280.889 52.3364 279.894 52.367 278.895C52.3977 277.897 52.6353 276.915 53.065 276.013C53.4947 275.111 54.107 274.307 54.8631 273.654C63.3165 266.617 70.3218 258.003 75.4893 248.293L86.2946 227.831H100.358L111.28 248.293C116.448 258.003 123.453 266.617 131.907 273.654C133.051 274.604 133.874 275.884 134.264 277.32C134.653 278.755 134.589 280.276 134.081 281.674C133.573 283.072 132.646 284.279 131.426 285.13C130.206 285.981 128.753 286.435 127.266 286.428V286.428Z" fill="url(#paint0_linear_14_158)"/>
<path d="M112.64 253.731L107.155 246.863C106.919 246.567 106.615 246.333 106.268 246.18C105.922 246.027 105.543 245.961 105.166 245.986C104.788 246.011 104.422 246.128 104.099 246.326C103.776 246.523 103.506 246.796 103.311 247.121L100.358 251.95C99.6191 253.172 98.5772 254.184 97.333 254.886C96.0888 255.588 94.6844 255.957 93.2559 255.957C91.8273 255.957 90.4229 255.588 89.1787 254.886C87.9345 254.184 86.8926 253.172 86.1539 251.95L83.2709 247.121C83.0765 246.796 82.8062 246.523 82.4833 246.326C82.1603 246.128 81.7943 246.011 81.4164 245.986C81.0386 245.961 80.6603 246.027 80.3138 246.18C79.9673 246.333 79.663 246.567 79.427 246.863L73.9423 253.731C72.9855 254.929 71.6022 255.709 70.0825 255.909C68.5627 256.109 67.0246 255.713 65.7908 254.803C64.5569 253.894 63.7232 252.542 63.4644 251.031C63.2056 249.52 63.5418 247.968 64.4027 246.699L69.0904 239.832C76.6327 228.775 82.6852 216.773 87.0915 204.134C87.5458 202.844 88.3896 201.726 89.5064 200.935C90.6231 200.144 91.9578 199.719 93.3262 199.719C94.6946 199.719 96.0292 200.144 97.146 200.935C98.2628 201.726 99.1065 202.844 99.5609 204.134C103.984 216.754 110.027 228.746 117.539 239.808L122.226 246.676C123.087 247.944 123.423 249.497 123.165 251.007C122.906 252.518 122.072 253.87 120.838 254.78C119.604 255.689 118.066 256.085 116.546 255.886C115.027 255.686 113.643 254.905 112.687 253.708L112.64 253.731Z" fill="#A5EA92"/>
<path d="M151.923 337.994H119.109C123.221 330.292 125.476 321.736 125.695 313.008L126.141 295.804H144.892L145.337 313.008C145.548 321.737 147.804 330.295 151.923 337.994V337.994Z" fill="url(#paint1_linear_14_158)"/>
<path d="M182.394 307.523C180.818 307.515 179.291 306.979 178.058 306L170.206 299.718C169.994 299.549 169.744 299.436 169.477 299.388C169.21 299.341 168.936 299.362 168.68 299.448C168.423 299.534 168.192 299.684 168.008 299.882C167.825 300.081 167.694 300.323 167.627 300.585C167.204 302.26 166.316 303.781 165.066 304.973C163.816 306.165 162.255 306.979 160.562 307.322C158.869 307.665 157.113 307.523 155.498 306.912C153.882 306.3 152.473 305.245 151.431 303.867L148.431 299.882C148.283 299.679 148.089 299.513 147.865 299.399C147.641 299.285 147.393 299.225 147.142 299.225C146.89 299.225 146.642 299.285 146.418 299.399C146.194 299.513 146 299.679 145.853 299.882L142.852 303.867C141.977 305.005 140.851 305.926 139.563 306.56C138.275 307.195 136.858 307.524 135.422 307.524C133.986 307.524 132.57 307.195 131.281 306.56C129.993 305.926 128.868 305.005 127.992 303.867L124.992 299.882C124.844 299.679 124.65 299.513 124.426 299.399C124.202 299.285 123.954 299.225 123.703 299.225C123.451 299.225 123.204 299.285 122.98 299.399C122.755 299.513 122.562 299.679 122.414 299.882L119.414 303.867C118.359 305.217 116.947 306.244 115.338 306.833C113.729 307.421 111.988 307.546 110.311 307.195C108.634 306.844 107.09 306.029 105.852 304.844C104.615 303.659 103.735 302.151 103.311 300.491V300.491C103.245 300.229 103.114 299.987 102.93 299.789C102.746 299.59 102.515 299.441 102.259 299.354C102.002 299.268 101.728 299.248 101.461 299.295C101.195 299.342 100.944 299.455 100.733 299.624L92.8808 305.906C91.4861 306.811 89.8158 307.193 88.1664 306.983C86.5169 306.774 84.9951 305.987 83.871 304.761C82.747 303.536 82.0935 301.952 82.0265 300.291C81.9596 298.63 82.4835 296.998 83.5053 295.687C102.819 275.881 109.147 267.677 128.484 244.238H142.548C159.306 264.513 168.776 276.467 185.16 293.46L187.503 295.804C188.401 296.807 188.992 298.047 189.206 299.377C189.42 300.706 189.247 302.069 188.709 303.303C188.171 304.537 187.29 305.591 186.17 306.339C185.051 307.087 183.74 307.498 182.394 307.523V307.523Z" fill="#4DA67F"/>
<path d="M169.456 274.709C168.37 274.708 167.299 274.463 166.322 273.992C165.344 273.522 164.485 272.837 163.807 271.99L159.752 266.904C159.473 266.556 159.1 266.296 158.678 266.152C158.256 266.009 157.802 265.989 157.369 266.095C156.936 266.201 156.542 266.428 156.233 266.75C155.925 267.071 155.714 267.474 155.627 267.912C155.266 269.551 154.427 271.046 153.215 272.207C152.002 273.368 150.472 274.142 148.819 274.431C147.166 274.72 145.464 274.51 143.93 273.83C142.396 273.149 141.099 272.027 140.204 270.607L137.649 266.341C137.442 265.991 137.147 265.702 136.793 265.5C136.44 265.299 136.04 265.193 135.633 265.193C135.227 265.193 134.827 265.299 134.473 265.5C134.12 265.702 133.825 265.991 133.618 266.341L131.063 270.607C130.182 272.067 128.881 273.227 127.33 273.935C125.779 274.643 124.051 274.866 122.371 274.574C120.691 274.283 119.138 273.491 117.916 272.302C116.694 271.113 115.86 269.583 115.523 267.912C115.435 267.474 115.225 267.071 114.916 266.75C114.608 266.428 114.214 266.201 113.781 266.095C113.348 265.989 112.894 266.009 112.471 266.152C112.049 266.296 111.677 266.556 111.398 266.904L107.343 271.99C106.707 272.761 105.918 273.392 105.026 273.842C104.134 274.292 103.158 274.552 102.16 274.606C101.162 274.66 100.164 274.506 99.229 274.153C98.2938 273.801 97.4418 273.259 96.7271 272.56C96.0124 271.862 95.4505 271.023 95.0769 270.096C94.7034 269.169 94.5263 268.175 94.5569 267.176C94.5876 266.177 94.8252 265.196 95.2549 264.293C95.6845 263.391 96.2968 262.588 97.053 261.935C105.506 254.897 112.512 246.284 117.679 236.574L128.484 216.112H142.548L153.47 236.574C158.638 246.284 165.643 254.897 174.096 261.935C175.241 262.885 176.064 264.165 176.453 265.6C176.843 267.036 176.779 268.557 176.271 269.955C175.763 271.353 174.836 272.56 173.616 273.411C172.396 274.262 170.943 274.715 169.456 274.709V274.709Z" fill="#7ECE67"/>
<path d="M154.83 242.012L149.345 235.144C149.109 234.848 148.805 234.613 148.458 234.461C148.112 234.308 147.733 234.241 147.355 234.267C146.978 234.292 146.612 234.408 146.289 234.606C145.966 234.804 145.695 235.077 145.501 235.402L142.548 240.23C141.809 241.453 140.767 242.464 139.523 243.166C138.279 243.868 136.874 244.237 135.446 244.237C134.017 244.237 132.613 243.868 131.369 243.166C130.124 242.464 129.082 241.453 128.344 240.23L125.461 235.402C125.266 235.077 124.996 234.804 124.673 234.606C124.35 234.408 123.984 234.292 123.606 234.267C123.228 234.241 122.85 234.308 122.504 234.461C122.157 234.613 121.853 234.848 121.617 235.144L116.132 242.012C115.175 243.209 113.792 243.99 112.272 244.19C110.753 244.389 109.215 243.993 107.981 243.084C106.747 242.174 105.913 240.822 105.654 239.311C105.395 237.801 105.732 236.248 106.593 234.98L111.28 228.112C118.823 217.056 124.875 205.053 129.281 192.415C129.736 191.124 130.579 190.006 131.696 189.216C132.813 188.425 134.148 188 135.516 188C136.884 188 138.219 188.425 139.336 189.216C140.453 190.006 141.296 191.124 141.751 192.415C146.174 205.034 152.217 217.026 159.728 228.089L164.416 234.956C165.277 236.225 165.613 237.777 165.354 239.288C165.096 240.799 164.262 242.151 163.028 243.06C161.794 243.97 160.256 244.366 158.736 244.166C157.217 243.966 155.833 243.186 154.877 241.988L154.83 242.012Z" fill="url(#paint2_linear_14_158)"/>
<path d="M83.5 130V106.727H93.5455C95.2727 106.727 96.7841 107.068 98.0795 107.75C99.375 108.432 100.383 109.39 101.102 110.625C101.822 111.86 102.182 113.303 102.182 114.955C102.182 116.621 101.811 118.064 101.068 119.284C100.333 120.504 99.2992 121.443 97.9659 122.102C96.6402 122.761 95.0909 123.091 93.3182 123.091H87.3182V118.182H92.0455C92.7879 118.182 93.4205 118.053 93.9432 117.795C94.4735 117.53 94.8788 117.155 95.1591 116.67C95.447 116.186 95.5909 115.614 95.5909 114.955C95.5909 114.288 95.447 113.72 95.1591 113.25C94.8788 112.773 94.4735 112.409 93.9432 112.159C93.4205 111.902 92.7879 111.773 92.0455 111.773H89.8182V130H83.5ZM108.673 130.273C107.56 130.273 106.575 130.091 105.719 129.727C104.87 129.356 104.204 128.795 103.719 128.045C103.234 127.295 102.991 126.341 102.991 125.182C102.991 124.227 103.154 123.413 103.48 122.739C103.806 122.057 104.26 121.5 104.844 121.068C105.427 120.636 106.105 120.307 106.878 120.08C107.658 119.852 108.499 119.705 109.401 119.636C110.378 119.561 111.162 119.47 111.753 119.364C112.351 119.25 112.783 119.095 113.048 118.898C113.313 118.693 113.446 118.424 113.446 118.091V118.045C113.446 117.591 113.272 117.242 112.923 117C112.575 116.758 112.128 116.636 111.582 116.636C110.984 116.636 110.495 116.769 110.116 117.034C109.745 117.292 109.522 117.689 109.446 118.227H103.673C103.749 117.167 104.086 116.189 104.685 115.295C105.291 114.394 106.173 113.674 107.332 113.136C108.491 112.591 109.938 112.318 111.673 112.318C112.923 112.318 114.045 112.466 115.037 112.761C116.029 113.049 116.874 113.455 117.571 113.977C118.268 114.492 118.798 115.098 119.162 115.795C119.533 116.485 119.719 117.235 119.719 118.045V130H113.855V127.545H113.719C113.37 128.197 112.946 128.723 112.446 129.125C111.954 129.527 111.389 129.818 110.753 130C110.124 130.182 109.431 130.273 108.673 130.273ZM110.719 126.318C111.196 126.318 111.643 126.22 112.06 126.023C112.484 125.826 112.829 125.542 113.094 125.17C113.359 124.799 113.491 124.348 113.491 123.818V122.364C113.325 122.432 113.147 122.496 112.957 122.557C112.776 122.617 112.579 122.674 112.366 122.727C112.162 122.78 111.942 122.83 111.707 122.875C111.48 122.92 111.241 122.962 110.991 123C110.507 123.076 110.109 123.201 109.798 123.375C109.495 123.542 109.268 123.75 109.116 124C108.973 124.242 108.901 124.515 108.901 124.818C108.901 125.303 109.071 125.674 109.412 125.932C109.753 126.189 110.188 126.318 110.719 126.318ZM125.807 130L121.443 112.545H127.716L129.716 123.182H129.852L132.08 112.545H138.17L140.489 123.091H140.625L142.534 112.545H148.807L144.443 130H137.67L135.216 120.636H135.034L132.58 130H125.807ZM166.67 118.227H160.898C160.867 117.871 160.742 117.564 160.523 117.307C160.303 117.049 160.019 116.852 159.67 116.716C159.33 116.572 158.951 116.5 158.534 116.5C157.996 116.5 157.534 116.598 157.148 116.795C156.761 116.992 156.572 117.273 156.58 117.636C156.572 117.894 156.682 118.133 156.909 118.352C157.144 118.572 157.595 118.742 158.261 118.864L161.807 119.5C163.595 119.826 164.924 120.375 165.795 121.148C166.674 121.913 167.117 122.939 167.125 124.227C167.117 125.47 166.746 126.549 166.011 127.466C165.284 128.375 164.288 129.08 163.023 129.58C161.765 130.072 160.33 130.318 158.716 130.318C156.049 130.318 153.962 129.773 152.455 128.682C150.955 127.591 150.117 126.152 149.943 124.364H156.17C156.254 124.917 156.527 125.345 156.989 125.648C157.458 125.943 158.049 126.091 158.761 126.091C159.337 126.091 159.811 125.992 160.182 125.795C160.561 125.598 160.754 125.318 160.761 124.955C160.754 124.621 160.587 124.356 160.261 124.159C159.943 123.962 159.443 123.803 158.761 123.682L155.67 123.136C153.89 122.826 152.557 122.235 151.67 121.364C150.784 120.492 150.345 119.371 150.352 118C150.345 116.788 150.663 115.761 151.307 114.92C151.958 114.072 152.886 113.428 154.091 112.989C155.303 112.542 156.739 112.318 158.398 112.318C160.92 112.318 162.909 112.841 164.364 113.886C165.826 114.932 166.595 116.379 166.67 118.227ZM177.938 130.318C176.044 130.318 174.422 129.943 173.074 129.193C171.725 128.436 170.691 127.383 169.972 126.034C169.252 124.678 168.892 123.106 168.892 121.318C168.892 119.53 169.252 117.962 169.972 116.614C170.691 115.258 171.725 114.205 173.074 113.455C174.422 112.697 176.044 112.318 177.938 112.318C179.831 112.318 181.453 112.697 182.801 113.455C184.15 114.205 185.184 115.258 185.903 116.614C186.623 117.962 186.983 119.53 186.983 121.318C186.983 123.106 186.623 124.678 185.903 126.034C185.184 127.383 184.15 128.436 182.801 129.193C181.453 129.943 179.831 130.318 177.938 130.318ZM177.983 125.682C178.513 125.682 178.972 125.504 179.358 125.148C179.744 124.792 180.044 124.284 180.256 123.625C180.468 122.966 180.574 122.182 180.574 121.273C180.574 120.356 180.468 119.572 180.256 118.92C180.044 118.261 179.744 117.754 179.358 117.398C178.972 117.042 178.513 116.864 177.983 116.864C177.422 116.864 176.941 117.042 176.54 117.398C176.138 117.754 175.831 118.261 175.619 118.92C175.407 119.572 175.301 120.356 175.301 121.273C175.301 122.182 175.407 122.966 175.619 123.625C175.831 124.284 176.138 124.792 176.54 125.148C176.941 125.504 177.422 125.682 177.983 125.682ZM189.528 130V112.545H195.483V115.864H195.665C196.028 114.773 196.65 113.909 197.528 113.273C198.407 112.636 199.453 112.318 200.665 112.318C201.892 112.318 202.949 112.644 203.835 113.295C204.722 113.939 205.256 114.795 205.438 115.864H205.619C205.915 114.795 206.544 113.939 207.506 113.295C208.468 112.644 209.597 112.318 210.892 112.318C212.566 112.318 213.922 112.856 214.96 113.932C216.006 115.008 216.528 116.439 216.528 118.227V130H210.256V119.818C210.256 119.053 210.063 118.455 209.676 118.023C209.29 117.583 208.771 117.364 208.119 117.364C207.475 117.364 206.964 117.583 206.585 118.023C206.214 118.455 206.028 119.053 206.028 119.818V130H200.028V119.818C200.028 119.053 199.835 118.455 199.449 118.023C199.063 117.583 198.544 117.364 197.892 117.364C197.46 117.364 197.089 117.462 196.778 117.659C196.468 117.856 196.225 118.14 196.051 118.511C195.884 118.875 195.801 119.311 195.801 119.818V130H189.528ZM227.986 130.318C226.122 130.318 224.516 129.962 223.168 129.25C221.827 128.53 220.793 127.5 220.065 126.159C219.346 124.811 218.986 123.197 218.986 121.318C218.986 119.515 219.349 117.939 220.077 116.591C220.804 115.242 221.83 114.193 223.156 113.443C224.482 112.693 226.046 112.318 227.849 112.318C229.168 112.318 230.361 112.523 231.429 112.932C232.497 113.341 233.41 113.936 234.168 114.716C234.925 115.489 235.509 116.428 235.918 117.534C236.327 118.64 236.531 119.886 236.531 121.273V122.727H220.94V119.273H230.759C230.751 118.773 230.622 118.333 230.372 117.955C230.13 117.568 229.8 117.269 229.384 117.057C228.974 116.837 228.509 116.727 227.986 116.727C227.478 116.727 227.012 116.837 226.588 117.057C226.164 117.269 225.823 117.564 225.565 117.943C225.315 118.322 225.183 118.765 225.168 119.273V123C225.168 123.561 225.285 124.061 225.52 124.5C225.755 124.939 226.092 125.284 226.531 125.534C226.971 125.784 227.501 125.909 228.122 125.909C228.554 125.909 228.948 125.848 229.304 125.727C229.668 125.606 229.978 125.432 230.236 125.205C230.493 124.97 230.683 124.689 230.804 124.364H236.531C236.334 125.576 235.868 126.629 235.134 127.523C234.399 128.409 233.425 129.098 232.213 129.591C231.009 130.076 229.599 130.318 227.986 130.318Z" fill="#373737"/>
<path d="M47.1136 96L40.6591 72.7273H44.3523L48.8864 90.75H49.1023L53.8182 72.7273H57.4773L62.1932 90.7614H62.4091L66.9318 72.7273H70.6364L64.1705 96H60.6364L55.7386 78.5682H55.5568L50.6591 96H47.1136ZM79.3693 96.3523C77.6496 96.3523 76.1686 95.9848 74.9261 95.25C73.6913 94.5076 72.7367 93.4659 72.0625 92.125C71.3958 90.7765 71.0625 89.197 71.0625 87.3864C71.0625 85.5985 71.3958 84.0227 72.0625 82.6591C72.7367 81.2955 73.6761 80.2311 74.8807 79.4659C76.0928 78.7008 77.5095 78.3182 79.1307 78.3182C80.1155 78.3182 81.0701 78.4811 81.9943 78.8068C82.9186 79.1326 83.7481 79.6439 84.483 80.3409C85.2178 81.0379 85.7973 81.9432 86.2216 83.0568C86.6458 84.1629 86.858 85.5076 86.858 87.0909V88.2955H72.983V85.75H83.5284C83.5284 84.8561 83.3466 84.0644 82.983 83.375C82.6193 82.678 82.108 82.1288 81.4489 81.7273C80.7973 81.3258 80.0322 81.125 79.1534 81.125C78.1989 81.125 77.3655 81.3598 76.6534 81.8295C75.9489 82.2917 75.4034 82.8977 75.017 83.6477C74.6383 84.3902 74.4489 85.197 74.4489 86.0682V88.0568C74.4489 89.2235 74.6534 90.2159 75.0625 91.0341C75.4792 91.8523 76.0587 92.4773 76.8011 92.9091C77.5436 93.3333 78.411 93.5455 79.4034 93.5455C80.0473 93.5455 80.6345 93.4545 81.1648 93.2727C81.6951 93.0833 82.1534 92.803 82.5398 92.4318C82.9261 92.0606 83.2216 91.6023 83.4261 91.0568L86.642 91.6364C86.3845 92.5833 85.9223 93.4129 85.2557 94.125C84.5966 94.8295 83.767 95.3788 82.767 95.7727C81.7746 96.1591 80.642 96.3523 79.3693 96.3523ZM94.0256 72.7273V96H90.6278V72.7273H94.0256ZM105.949 96.3523C104.259 96.3523 102.805 95.9697 101.585 95.2045C100.373 94.4318 99.4413 93.3674 98.7898 92.0114C98.1383 90.6553 97.8125 89.1023 97.8125 87.3523C97.8125 85.5795 98.1458 84.0152 98.8125 82.6591C99.4792 81.2955 100.419 80.2311 101.631 79.4659C102.843 78.7008 104.271 78.3182 105.915 78.3182C107.241 78.3182 108.422 78.5644 109.46 79.0568C110.498 79.5417 111.335 80.2235 111.972 81.1023C112.616 81.9811 112.998 83.0076 113.119 84.1818H109.812C109.631 83.3636 109.214 82.6591 108.562 82.0682C107.919 81.4773 107.055 81.1818 105.972 81.1818C105.025 81.1818 104.195 81.4318 103.483 81.9318C102.778 82.4242 102.229 83.1288 101.835 84.0455C101.441 84.9545 101.244 86.0303 101.244 87.2727C101.244 88.5455 101.438 89.6439 101.824 90.5682C102.21 91.4924 102.756 92.2083 103.46 92.7159C104.172 93.2235 105.009 93.4773 105.972 93.4773C106.616 93.4773 107.199 93.3598 107.722 93.125C108.252 92.8826 108.695 92.5379 109.051 92.0909C109.415 91.6439 109.669 91.1061 109.812 90.4773H113.119C112.998 91.6061 112.631 92.6136 112.017 93.5C111.403 94.3864 110.581 95.0833 109.551 95.5909C108.528 96.0985 107.328 96.3523 105.949 96.3523ZM124.105 96.3523C122.469 96.3523 121.041 95.9773 119.821 95.2273C118.601 94.4773 117.654 93.428 116.98 92.0795C116.306 90.7311 115.969 89.1553 115.969 87.3523C115.969 85.5417 116.306 83.9583 116.98 82.6023C117.654 81.2462 118.601 80.1932 119.821 79.4432C121.041 78.6932 122.469 78.3182 124.105 78.3182C125.741 78.3182 127.17 78.6932 128.389 79.4432C129.609 80.1932 130.556 81.2462 131.23 82.6023C131.904 83.9583 132.241 85.5417 132.241 87.3523C132.241 89.1553 131.904 90.7311 131.23 92.0795C130.556 93.428 129.609 94.4773 128.389 95.2273C127.17 95.9773 125.741 96.3523 124.105 96.3523ZM124.116 93.5C125.177 93.5 126.056 93.2197 126.753 92.6591C127.45 92.0985 127.965 91.3523 128.298 90.4205C128.639 89.4886 128.81 88.4621 128.81 87.3409C128.81 86.2273 128.639 85.2045 128.298 84.2727C127.965 83.3333 127.45 82.5795 126.753 82.0114C126.056 81.4432 125.177 81.1591 124.116 81.1591C123.048 81.1591 122.162 81.4432 121.457 82.0114C120.76 82.5795 120.241 83.3333 119.901 84.2727C119.567 85.2045 119.401 86.2273 119.401 87.3409C119.401 88.4621 119.567 89.4886 119.901 90.4205C120.241 91.3523 120.76 92.0985 121.457 92.6591C122.162 93.2197 123.048 93.5 124.116 93.5ZM136.034 96V78.5455H139.295V81.3864H139.511C139.875 80.4242 140.47 79.6742 141.295 79.1364C142.121 78.5909 143.11 78.3182 144.261 78.3182C145.428 78.3182 146.405 78.5909 147.193 79.1364C147.989 79.6818 148.576 80.4318 148.955 81.3864H149.136C149.553 80.4545 150.216 79.7121 151.125 79.1591C152.034 78.5985 153.117 78.3182 154.375 78.3182C155.958 78.3182 157.25 78.8144 158.25 79.8068C159.258 80.7992 159.761 82.2955 159.761 84.2955V96H156.364V84.6136C156.364 83.4318 156.042 82.5758 155.398 82.0455C154.754 81.5152 153.985 81.25 153.091 81.25C151.985 81.25 151.125 81.5909 150.511 82.2727C149.898 82.947 149.591 83.8144 149.591 84.875V96H146.205V84.3977C146.205 83.4508 145.909 82.6894 145.318 82.1136C144.727 81.5379 143.958 81.25 143.011 81.25C142.367 81.25 141.773 81.4205 141.227 81.7614C140.689 82.0947 140.254 82.5606 139.92 83.1591C139.595 83.7576 139.432 84.4508 139.432 85.2386V96H136.034ZM171.838 96.3523C170.118 96.3523 168.637 95.9848 167.395 95.25C166.16 94.5076 165.205 93.4659 164.531 92.125C163.865 90.7765 163.531 89.197 163.531 87.3864C163.531 85.5985 163.865 84.0227 164.531 82.6591C165.205 81.2955 166.145 80.2311 167.349 79.4659C168.562 78.7008 169.978 78.3182 171.599 78.3182C172.584 78.3182 173.539 78.4811 174.463 78.8068C175.387 79.1326 176.217 79.6439 176.952 80.3409C177.687 81.0379 178.266 81.9432 178.69 83.0568C179.115 84.1629 179.327 85.5076 179.327 87.0909V88.2955H165.452V85.75H175.997C175.997 84.8561 175.815 84.0644 175.452 83.375C175.088 82.678 174.577 82.1288 173.918 81.7273C173.266 81.3258 172.501 81.125 171.622 81.125C170.668 81.125 169.834 81.3598 169.122 81.8295C168.418 82.2917 167.872 82.8977 167.486 83.6477C167.107 84.3902 166.918 85.197 166.918 86.0682V88.0568C166.918 89.2235 167.122 90.2159 167.531 91.0341C167.948 91.8523 168.527 92.4773 169.27 92.9091C170.012 93.3333 170.88 93.5455 171.872 93.5455C172.516 93.5455 173.103 93.4545 173.634 93.2727C174.164 93.0833 174.622 92.803 175.009 92.4318C175.395 92.0606 175.69 91.6023 175.895 91.0568L179.111 91.6364C178.853 92.5833 178.391 93.4129 177.724 94.125C177.065 94.8295 176.236 95.3788 175.236 95.7727C174.243 96.1591 173.111 96.3523 171.838 96.3523ZM199.713 78.5455V81.2727H190.179V78.5455H199.713ZM192.736 74.3636H196.134V90.875C196.134 91.5341 196.232 92.0303 196.429 92.3636C196.626 92.6894 196.88 92.9129 197.19 93.0341C197.509 93.1477 197.853 93.2045 198.224 93.2045C198.497 93.2045 198.736 93.1856 198.94 93.1477C199.145 93.1098 199.304 93.0795 199.418 93.0568L200.031 95.8636C199.834 95.9394 199.554 96.0152 199.19 96.0909C198.827 96.1742 198.372 96.2197 197.827 96.2273C196.933 96.2424 196.099 96.0833 195.327 95.75C194.554 95.4167 193.929 94.9015 193.452 94.2045C192.974 93.5076 192.736 92.6326 192.736 91.5795V74.3636ZM210.636 96.3523C209 96.3523 207.572 95.9773 206.352 95.2273C205.133 94.4773 204.186 93.428 203.511 92.0795C202.837 90.7311 202.5 89.1553 202.5 87.3523C202.5 85.5417 202.837 83.9583 203.511 82.6023C204.186 81.2462 205.133 80.1932 206.352 79.4432C207.572 78.6932 209 78.3182 210.636 78.3182C212.273 78.3182 213.701 78.6932 214.92 79.4432C216.14 80.1932 217.087 81.2462 217.761 82.6023C218.436 83.9583 218.773 85.5417 218.773 87.3523C218.773 89.1553 218.436 90.7311 217.761 92.0795C217.087 93.428 216.14 94.4773 214.92 95.2273C213.701 95.9773 212.273 96.3523 210.636 96.3523ZM210.648 93.5C211.708 93.5 212.587 93.2197 213.284 92.6591C213.981 92.0985 214.496 91.3523 214.83 90.4205C215.17 89.4886 215.341 88.4621 215.341 87.3409C215.341 86.2273 215.17 85.2045 214.83 84.2727C214.496 83.3333 213.981 82.5795 213.284 82.0114C212.587 81.4432 211.708 81.1591 210.648 81.1591C209.58 81.1591 208.693 81.4432 207.989 82.0114C207.292 82.5795 206.773 83.3333 206.432 84.2727C206.098 85.2045 205.932 86.2273 205.932 87.3409C205.932 88.4621 206.098 89.4886 206.432 90.4205C206.773 91.3523 207.292 92.0985 207.989 92.6591C208.693 93.2197 209.58 93.5 210.648 93.5Z" fill="#373737"/>
<path d="M314.617 301.103C314.617 301.103 325.695 301.103 322.002 290.026C320.156 284.488 323.848 288.18 325.695 291.872C327.541 295.565 329.387 306.642 316.463 304.796C303.54 302.95 314.617 301.103 314.617 301.103Z" fill="#662113"/>
<path d="M321.925 308.398C321.974 307.82 322.002 307.296 322.002 306.845C322.002 305.63 321.886 304.999 321.686 304.772C320.032 299.333 311.492 299.425 301.649 299.457C296.135 299.414 292.463 291.887 292.463 290.229C292.463 280.998 283.512 278.816 278.616 284.691C274 290.229 264.769 284.622 264.769 290.229C264.769 299.46 270.969 304.999 278.616 304.999C279.812 304.999 281.821 304.724 284.173 304.296C285.91 307.336 286.739 311.461 286.924 312.384C286.968 312.604 287.016 312.818 287.062 313.036C287.866 321.565 292.012 338.231 294.309 338.231C296.284 338.231 297.412 333.645 297.82 328.261C299.456 328.741 301.347 329 303.54 329C305.593 329 307.485 328.544 309.223 327.783C309.601 333.372 310.736 338.231 312.771 338.231C315.156 338.231 321.16 316.999 321.921 308.426L321.925 308.398" fill="#D99E82"/>
<path d="M268.462 291.154C268.462 292.685 266.3 293.923 264.769 293.923C263.239 293.923 262 291.762 262 290.231C262 288.701 263.239 288.385 264.769 288.385C268.462 288.385 268.462 289.624 268.462 291.154ZM294.309 293.923C294.309 299.532 291.828 300.385 288.77 300.385C285.711 300.385 283.232 299.532 283.232 293.923C283.232 288.315 283.865 281 286.924 281C289.983 281 294.309 288.315 294.309 293.923Z" fill="#662113"/>
<path d="M281.385 288.385C281.385 288.875 281.191 289.344 280.845 289.69C280.498 290.037 280.029 290.231 279.539 290.231C279.049 290.231 278.58 290.037 278.234 289.69C277.887 289.344 277.693 288.875 277.693 288.385C277.693 287.895 277.887 287.426 278.234 287.079C278.58 286.733 279.049 286.539 279.539 286.539C280.029 286.539 280.498 286.733 280.845 287.079C281.191 287.426 281.385 287.895 281.385 288.385Z" fill="#292F33"/>
<path d="M318.31 307.77C318.31 310.318 315.83 312.386 312.771 312.386C309.712 312.386 307.232 310.318 307.232 307.77C307.232 305.221 309.712 303.155 312.771 303.155C315.83 303.155 318.31 305.221 318.31 307.77ZM305.386 305.924C305.386 306.659 305.094 307.363 304.574 307.883C304.054 308.402 303.35 308.694 302.615 308.693C301.88 308.693 301.176 308.401 300.656 307.881C300.137 307.362 299.845 306.657 299.846 305.922C299.846 305.558 299.918 305.198 300.057 304.862C300.196 304.526 300.4 304.221 300.658 303.964C300.915 303.706 301.221 303.502 301.557 303.363C301.893 303.224 302.253 303.153 302.617 303.153C302.981 303.153 303.341 303.225 303.677 303.364C304.013 303.503 304.318 303.707 304.575 303.965C304.833 304.222 305.037 304.528 305.176 304.864C305.315 305.2 305.386 305.56 305.386 305.924ZM309.079 315.155C309.079 315.519 309.007 315.879 308.867 316.215C308.728 316.551 308.524 316.856 308.267 317.114C308.009 317.371 307.704 317.575 307.368 317.714C307.032 317.853 306.671 317.924 306.307 317.924C305.944 317.924 305.583 317.852 305.247 317.713C304.911 317.574 304.606 317.37 304.349 317.112C304.092 316.855 303.888 316.55 303.749 316.213C303.61 315.877 303.538 315.517 303.538 315.153C303.538 314.418 303.83 313.714 304.35 313.195C304.87 312.675 305.575 312.384 306.309 312.384C307.044 312.384 307.749 312.676 308.268 313.196C308.787 313.716 309.079 314.42 309.079 315.155" fill="#C1694F"/>
<path d="M225.025 301.15L229.325 304.375L226.1 309.75C226.1 309.75 223.95 304.375 225.025 301.15ZM238.699 301.15L234.399 304.375L237.624 309.75C237.624 309.75 239.774 304.375 238.699 301.15Z" fill="#37474F"/>
<path d="M223.649 324.799L229.024 335.553C229.024 335.553 229.024 337.699 231.174 337.699H235.474C235.474 337.699 235.474 335.549 233.324 335.549L230.099 328.024L232.249 319.424L223.649 324.799ZM205.375 328.026L207.525 335.553C207.525 335.553 207.794 337.699 209.675 337.699H213.975C213.975 337.699 213.975 335.549 211.825 335.549L209.675 329.1L205.375 328.026V328.026Z" fill="#455A64"/>
<path d="M215.05 325.876C212.9 329.101 209.675 331.251 209.675 331.251L205.375 328.026C205.375 328.026 206.45 323.727 206.45 318.352L215.05 325.876V325.876Z" fill="#455A64"/>
<path d="M223.649 325.874C219.131 324.232 215.05 325.876 215.05 325.876L206.45 325.874V312.975C213.975 300.075 233.324 315.125 233.324 315.125C233.324 315.125 233.362 315.536 233.352 316.199C233.313 319.087 232.394 326.748 223.649 325.874Z" fill="#455A64"/>
<path d="M207.632 315.77H206.127C202.692 315.77 200 313.078 200 309.642C200 306.207 202.692 303.515 206.127 303.515H207.632C209.287 303.515 210.535 302.267 210.535 300.612C210.535 300.185 210.705 299.775 211.007 299.472C211.309 299.17 211.72 299 212.147 299C212.575 299 212.985 299.17 213.287 299.472C213.59 299.775 213.76 300.185 213.76 300.612C213.76 304.048 211.068 306.74 207.632 306.74H206.127C204.473 306.74 203.225 307.987 203.225 309.641C203.225 311.296 204.473 312.544 206.127 312.544H207.632C208.06 312.544 208.47 312.714 208.773 313.016C209.075 313.319 209.245 313.729 209.245 314.157C209.245 314.584 209.075 314.995 208.773 315.297C208.47 315.6 208.06 315.77 207.632 315.77V315.77ZM231.712 303.3C229.859 303.3 228.081 304.036 226.771 305.346C225.461 306.657 224.724 308.434 224.724 310.287C224.724 312.14 225.461 313.918 226.771 315.228C228.081 316.538 229.859 317.275 231.712 317.275C233.565 317.275 235.342 316.538 236.652 315.228C237.963 313.918 238.699 312.14 238.699 310.287C238.699 308.434 237.963 306.657 236.652 305.346C235.342 304.036 233.565 303.3 231.712 303.3Z" fill="#455A64"/>
<path d="M207.525 335.553L206.05 330.39L204.3 334.474C204.3 334.474 204.3 337.699 206.45 337.699H209.675C207.794 337.699 207.525 335.553 207.525 335.553ZM229.049 335.822C228.712 335.638 228.333 335.544 227.949 335.551V333.402L224.199 325.899C224.013 325.887 223.843 325.894 223.649 325.874V335.556C223.649 335.556 223.649 337.701 225.799 337.701H230.099C230.099 337.701 230.095 337.588 230.073 337.428C229.324 337.014 229.106 336.235 229.049 335.822V335.822ZM215.05 325.876C213.58 328.081 211.629 329.762 210.529 330.618C210.529 330.618 210.465 330.663 210.41 330.713C210.397 330.723 210.384 330.733 210.37 330.743L210.371 330.745C210.313 330.791 210.258 330.829 210.252 330.834L210.535 331.679L210.75 331.249C210.75 331.249 215.05 329.101 217.2 325.876L217.719 325.253C216.099 325.455 215.05 325.876 215.05 325.876V325.876ZM231.712 317.275C229.859 317.275 228.081 316.538 226.771 315.228C225.461 313.918 224.724 312.14 224.724 310.287C224.724 310.206 224.734 310.127 224.737 310.045C224.05 309.737 223.354 309.452 222.647 309.191C222.601 309.554 222.576 309.921 222.574 310.287C222.574 315.327 226.673 319.424 231.712 319.424C232.138 319.421 232.563 319.388 232.984 319.326C233.169 318.51 233.267 317.741 233.312 317.083C232.788 317.209 232.251 317.273 231.712 317.275V317.275ZM232.249 312.975C232.249 312.975 231.667 313.781 231.174 312.975L230.099 311.901V310.826L233.325 310.825V311.9L232.249 312.975Z" fill="#263238"/>
<path d="M236.549 307.6C236.549 307.6 236.863 310.824 234.937 310.824L233.325 310.825C233.325 310.825 232.966 307.6 234.937 307.6H236.549ZM226.874 307.601C226.874 307.601 226.472 310.825 228.487 310.825L230.099 310.826C230.099 310.826 230.503 307.6 228.487 307.6L226.874 307.601Z" fill="#FFEB3B"/>
</g>

</svg>
