<svg width="390" height="844" viewBox="0 0 390 844" fill="none" xmlns="http://www.w3.org/2000/svg">
<rect width="390" height="844" fill="#2AAA8A"/>
<path d="M315.094 100.529C315.094 100.529 323.956 100.529 321.002 91.6672C319.525 87.2363 322.479 90.1902 323.956 93.1442C325.433 96.0981 326.91 104.96 316.571 103.483C306.232 102.006 315.094 100.529 315.094 100.529Z" fill="#662113"/>
<path d="M320.94 106.365C320.98 105.902 321.002 105.483 321.002 105.122C321.002 104.151 320.909 103.645 320.749 103.464C319.426 99.1126 312.593 99.1864 304.72 99.2115C300.308 99.1776 297.37 93.1559 297.37 91.8296C297.37 84.4447 290.21 82.699 286.293 87.3987C282.6 91.8296 275.215 87.344 275.215 91.8296C275.215 99.2145 280.175 103.645 286.293 103.645C287.25 103.645 288.857 103.425 290.738 103.083C292.128 105.515 292.791 108.815 292.939 109.553C292.975 109.729 293.013 109.9 293.05 110.075C293.692 116.898 297.01 130.231 298.847 130.231C300.427 130.231 301.33 126.562 301.656 122.255C302.965 122.639 304.477 122.846 306.232 122.846C307.874 122.846 309.388 122.481 310.778 121.873C311.081 126.344 311.989 130.231 313.617 130.231C315.525 130.231 320.328 113.246 320.937 106.387L320.94 106.365" fill="#D99E82"/>
<path d="M278.169 92.5695C278.169 93.7939 276.44 94.7849 275.215 94.7849C273.991 94.7849 273 93.0554 273 91.831C273 90.6066 273.991 90.354 275.215 90.354C278.169 90.354 278.169 91.3451 278.169 92.5695ZM298.847 94.7849C298.847 99.272 296.862 99.9543 294.416 99.9543C291.969 99.9543 289.985 99.272 289.985 94.7849C289.985 90.2979 290.492 84.4461 292.939 84.4461C295.387 84.4461 298.847 90.2979 298.847 94.7849Z" fill="#662113"/>
<path d="M288.508 90.3541C288.508 90.7458 288.353 91.1215 288.076 91.3985C287.799 91.6754 287.423 91.8311 287.031 91.8311C286.64 91.8311 286.264 91.6754 285.987 91.3985C285.71 91.1215 285.554 90.7458 285.554 90.3541C285.554 89.9624 285.71 89.5867 285.987 89.3097C286.264 89.0327 286.64 88.8771 287.031 88.8771C287.423 88.8771 287.799 89.0327 288.076 89.3097C288.353 89.5867 288.508 89.9624 288.508 90.3541Z" fill="#292F33"/>
<path d="M318.048 105.862C318.048 107.9 316.064 109.555 313.617 109.555C311.169 109.555 309.186 107.9 309.186 105.862C309.186 103.823 311.169 102.17 313.617 102.17C316.064 102.17 318.048 103.823 318.048 105.862ZM307.709 104.385C307.709 104.973 307.475 105.537 307.059 105.952C306.644 106.368 306.08 106.601 305.492 106.601C304.904 106.601 304.341 106.367 303.925 105.951C303.51 105.535 303.276 104.972 303.277 104.384C303.277 104.093 303.334 103.805 303.446 103.536C303.557 103.267 303.72 103.023 303.926 102.817C304.132 102.611 304.376 102.448 304.645 102.337C304.914 102.225 305.202 102.168 305.493 102.168C305.785 102.168 306.073 102.226 306.342 102.337C306.61 102.449 306.855 102.612 307.06 102.818C307.266 103.024 307.429 103.268 307.541 103.537C307.652 103.806 307.709 104.094 307.709 104.385ZM310.663 111.77C310.663 112.061 310.605 112.349 310.494 112.618C310.382 112.887 310.219 113.131 310.013 113.337C309.807 113.543 309.563 113.706 309.294 113.817C309.025 113.928 308.737 113.986 308.446 113.986C308.155 113.985 307.867 113.928 307.598 113.817C307.329 113.705 307.085 113.542 306.879 113.336C306.673 113.13 306.51 112.886 306.399 112.617C306.288 112.348 306.23 112.06 306.23 111.769C306.231 111.181 306.464 110.617 306.88 110.202C307.296 109.786 307.86 109.553 308.447 109.553C309.035 109.553 309.599 109.787 310.014 110.203C310.43 110.619 310.663 111.182 310.663 111.77" fill="#C1694F"/>
<path d="M36.4196 75.2981C35.4562 70.5681 31.1567 67 26 67C21.9058 67 18.3571 69.255 16.5792 72.5481C12.3221 72.995 9 76.4944 9 80.75C9 85.3081 12.8037 89 17.5 89H35.9167C39.8267 89 43 85.92 43 82.125C43 78.495 40.0887 75.5525 36.4196 75.2981Z" fill="white"/>
<path d="M104.434 62.1542C104.434 62.0833 104.445 62.0125 104.445 61.9417C104.445 58.1049 101.554 55 97.9875 55C95.4144 55 93.2041 56.6174 92.1659 58.9549C91.7138 58.7128 91.2058 58.5712 90.67 58.5712C89.0234 58.5712 87.6504 59.8639 87.388 61.5521C85.4121 62.2722 84 64.2733 84 66.6285C84 69.5917 86.2382 71.9941 88.9955 72H104.44C106.963 71.9882 109 69.7865 109 67.0771C109.006 64.3618 106.957 62.1601 104.434 62.1542V62.1542Z" fill="white"/>
<path d="M355.434 70.1542C355.434 70.0833 355.445 70.0125 355.445 69.9417C355.445 66.1049 352.554 63 348.987 63C346.414 63 344.204 64.6174 343.166 66.9549C342.714 66.7128 342.206 66.5712 341.67 66.5712C340.023 66.5712 338.65 67.8639 338.388 69.5521C336.412 70.2722 335 72.2733 335 74.6285C335 77.5917 337.238 79.9941 339.996 80H355.44C357.963 79.9882 360 77.7865 360 75.0771C360.006 72.3618 357.957 70.1601 355.434 70.1542V70.1542Z" fill="white"/>
<path d="M195.697 118.845C195.75 120.033 195.129 121.059 194.309 121.135C193.486 121.216 192.776 120.319 192.723 119.136C192.716 119.041 192.716 118.936 192.723 118.845L193.81 95.5581C193.823 95.2385 194.015 94.9952 194.237 95.0191C194.438 95.0382 194.597 95.272 194.61 95.5581L195.697 118.845Z" fill="#0BAD67"/>
<path d="M193.938 116.569C195.891 112.008 200.092 110.604 200.27 110.546C200.502 110.472 200.747 110.598 200.82 110.828C200.895 111.057 200.77 111.304 200.54 111.379C200.5 111.392 196.534 112.729 194.742 116.913C194.515 117.446 193.71 117.101 193.938 116.569Z" fill="#0BAD67"/>
<path d="M206.069 112.196C202.751 114.694 198.854 115.114 197.362 113.132C195.872 111.153 197.353 107.524 200.671 105.026C203.986 102.53 207.883 102.11 209.374 104.089C210.866 106.071 209.384 109.7 206.069 112.196ZM198.695 90.479C198.729 94.6322 196.748 98.0145 194.267 98.0347C191.79 98.0549 189.755 94.7054 189.721 90.5522C189.687 86.4025 191.668 83.0203 194.145 83.0001C196.626 82.9798 198.661 86.3293 198.695 90.479Z" fill="#13BD79"/>
<path d="M193.903 116.913C192.394 113.388 189.053 112.261 189.02 112.25C188.79 112.175 188.664 111.928 188.739 111.699C188.814 111.469 189.06 111.343 189.29 111.417C189.442 111.467 193.037 112.667 194.708 116.569C194.936 117.101 194.131 117.446 193.903 116.913Z" fill="#0BAD67"/>
<path d="M184.344 112.881C187.162 115.002 190.472 115.359 191.739 113.676C193.005 111.995 191.747 108.913 188.929 106.792C186.113 104.672 182.804 104.315 181.538 105.996C180.271 107.679 181.529 110.761 184.344 112.881Z" fill="#13BD79"/>
<path d="M193.903 105.165C195.574 101.264 199.17 100.063 199.322 100.014C199.552 99.9383 199.797 100.065 199.872 100.295C199.947 100.525 199.821 100.771 199.592 100.846C199.558 100.858 196.217 101.985 194.708 105.51C194.48 106.043 193.675 105.697 193.903 105.165Z" fill="#0BAD67"/>
<path d="M204.267 101.478C201.449 103.599 198.139 103.956 196.872 102.273C195.607 100.592 196.865 97.5098 199.683 95.3883C202.498 93.2685 205.808 92.9118 207.073 94.5926C208.34 96.2758 207.083 99.3578 204.267 101.478Z" fill="#13BD79"/>
<path d="M193.859 106.505C192.35 102.98 189.009 101.853 188.975 101.842C188.746 101.767 188.62 101.52 188.695 101.291C188.769 101.061 189.014 100.935 189.245 101.009C189.397 101.058 192.993 102.259 194.663 106.161C194.892 106.693 194.086 107.038 193.859 106.505Z" fill="#0BAD67"/>
<path d="M184.3 102.473C187.118 104.594 190.427 104.951 191.694 103.268C192.96 101.587 191.702 98.5049 188.884 96.3834C186.069 94.2636 182.759 93.9069 181.493 95.5877C180.226 97.2709 181.484 100.353 184.3 102.473Z" fill="#13BD79"/>
<path d="M201.245 118.64V120.01C201.245 120.259 201.043 120.462 200.793 120.462H187.625C187.376 120.462 187.173 120.259 187.173 120.01V118.64C187.173 118.391 187.376 118.188 187.625 118.188H200.793C201.043 118.188 201.245 118.391 201.245 118.64Z" fill="#AD6850"/>
<path d="M198.618 129.274L200.385 120.462H188.034L189.8 129.274C189.885 129.696 190.256 130 190.686 130H197.732C198.163 130 198.534 129.696 198.618 129.274Z" fill="#C17D61"/>
<path opacity="0.4" d="M190.041 127.279L190.325 128.699C190.366 128.903 190.565 129.036 190.769 128.995C190.973 128.954 191.105 128.755 191.064 128.551L190.78 127.131C190.745 126.955 190.59 126.828 190.41 126.828C190.172 126.828 189.994 127.046 190.041 127.279Z" fill="white"/>
<path opacity="0.08" d="M201.246 118.641V120.01C201.246 120.259 201.042 120.462 200.794 120.462H200.385L198.618 129.275C198.534 129.697 198.164 130 197.732 130H196.349C196.781 130 197.151 129.697 197.237 129.275L199.002 120.462H199.411C199.662 120.462 199.863 120.259 199.863 120.01V118.641C199.863 118.39 199.662 118.189 199.411 118.189H200.794C201.042 118.189 201.246 118.39 201.246 118.641Z" fill="black"/>
</svg>
